HIERARCHY
ROOT Hips
{
	OFFSET -32.860001 56.121803 44.745396
	CHANNELS 6 Xposition Yposition Zposition Zrotation Xrotation Yrotation
	JOINT Chest
	{
		OFFSET -0.637402 0.831600 5.390099
		CHANNELS 6 Xposition Yposition Zposition Zrotation Xrotation Yrotation
		JOINT Chest2
		{
			OFFSET 0.000000 0.000000 4.429901
			CHANNELS 6 Xposition Yposition Zposition Zrotation Xrotation Yrotation
			JOINT Neck
			{
				OFFSET 0.000000 0.000000 10.301395
				CHANNELS 6 Xposition Yposition Zposition Zrotation Xrotation Yrotation
				JOINT Head
				{
					OFFSET 0.000000 0.000000 2.173897
					CHANNELS 6 Xposition Yposition Zposition Zrotation Xrotation Yrotation
					End Site
					{
						OFFSET 0.000000 0.000000 8.298004
					}
				}
			}
			JOINT LeftCollar
			{
				OFFSET 2.142401 -0.572701 5.717800
				CHANNELS 6 Xposition Yposition Zposition Zrotation Xrotation Yrotation
				JOINT LeftShoulder
				{
					OFFSET 5.674000 0.000000 0.000000
					CHANNELS 6 Xposition Yposition Zposition Zrotation Xrotation Yrotation
					JOINT LeftElbow
					{
						OFFSET 0.000000 0.000000 -12.238701
						CHANNELS 6 Xposition Yposition Zposition Zrotation Xrotation Yrotation
						JOINT LeftWrist
						{
							OFFSET 0.000000 0.000000 -10.253700
							CHANNELS 6 Xposition Yposition Zposition Zrotation Xrotation Yrotation
							End Site
							{
								OFFSET 0.000000 0.000000 -2.173901
							}
						}
					}
				}
			}
			JOINT RightCollar
			{
				OFFSET -2.882599 -1.580101 6.695801
				CHANNELS 6 Xposition Yposition Zposition Zrotation Xrotation Yrotation
				JOINT RightShoulder
				{
					OFFSET -4.235600 0.000000 0.000000
					CHANNELS 6 Xposition Yposition Zposition Zrotation Xrotation Yrotation
					JOINT RightElbow
					{
						OFFSET 0.000000 0.000000 -10.709900
						CHANNELS 6 Xposition Yposition Zposition Zrotation Xrotation Yrotation
						JOINT RightWrist
						{
							OFFSET 0.000000 0.000000 -11.716801
							CHANNELS 6 Xposition Yposition Zposition Zrotation Xrotation Yrotation
							End Site
							{
								OFFSET 0.000000 0.000000 -2.173901
							}
						}
					}
				}
			}
		}
	}
	JOINT LeftHip
	{
		OFFSET 2.279499 0.210400 -2.475502
		CHANNELS 6 Xposition Yposition Zposition Zrotation Xrotation Yrotation
		JOINT LeftKnee
		{
			OFFSET 0.000000 -0.000004 -20.742800
			CHANNELS 6 Xposition Yposition Zposition Zrotation Xrotation Yrotation
			JOINT LeftAnkle
			{
				OFFSET 0.000000 0.000000 -16.666000
				CHANNELS 6 Xposition Yposition Zposition Zrotation Xrotation Yrotation
				End Site
				{
					OFFSET 0.000000 -8.310898 0.000000
				}
			}
		}
	}
	JOINT RightHip
	{
		OFFSET -1.961899 0.232300 -2.727402
		CHANNELS 6 Xposition Yposition Zposition Zrotation Xrotation Yrotation
		JOINT RightKnee
		{
			OFFSET 0.000000 -0.000004 -20.526800
			CHANNELS 6 Xposition Yposition Zposition Zrotation Xrotation Yrotation
			JOINT RightAnkle
			{
				OFFSET 0.000000 0.000000 -16.867300
				CHANNELS 6 Xposition Yposition Zposition Zrotation Xrotation Yrotation
				End Site
				{
					OFFSET 0.000000 -7.186401 0.000000
				}
			}
		}
	}
}
MOTION
Frames: 4
Frame Time: 0.041667
-33.375401 50.907394 32.838490 958.617706 3.341372 -22.208645 -0.637400 0.831598 5.390100 -7.930537 -5.749649 1.370943 0.000004 0.000001 4.429897 2.842710 -0.666634 -0.095049 -0.000001 -0.000002 10.301390 319.257686 6.423780 22.445291 0.000002 -0.000002 2.173888 -361.179037 3.831725 -5.209095 2.142393 -0.572696 5.717800 3.075359 -10.150930 -23.374417 5.673995 -0.000008 -0.000007 357.191464 -367.381150 -98.481800 0.000000 0.000004 -12.238696 -1049.740625 -20.358639 -351.559016 0.000000 0.000011 -10.253701 405.403747 37.657193 -86.304904 -2.882603 -1.580097 6.695791 0.006361 -1.305693 0.077328 -4.235604 -0.000010 0.000001 -710.998814 -46.836697 -281.705388 -0.000004 -0.000001 -10.709905 149.396250 -182.465840 185.010454 0.000001 -0.000012 -11.716799 -759.851770 12.505829 382.330876 2.279498 0.210395 -2.475498 344.541407 14.612983 -15.120420 -0.000005 0.000001 -20.742805 -389.611694 23.280592 19.639540 -0.000005 0.000004 -16.665997 409.936916 8.551846 25.729849 -1.961890 0.232301 -2.727398 -1236.662686 -21.009923 -104.299591 0.000000 -0.000008 -20.526810 1080.022187 175.525357 -290.202935 -0.000002 0.000001 -16.867304 -36.379688 37.998549 -35.739436
-33.386806 50.968597 32.777992 958.490172 3.184342 -22.309251 -0.637401 0.831596 5.390102 -7.878079 -5.577959 1.439708 -0.000002 -0.000003 4.429896 2.838479 -0.680441 -0.095014 -0.000003 0.000000 10.301397 319.314731 6.345466 22.549069 -0.000008 0.000005 2.173902 -361.082568 3.533719 -5.287354 2.142400 -0.572702 5.717801 2.959845 -9.983767 -23.246713 5.674008 -0.000007 -0.000008 357.476583 -367.335387 -98.227368 0.000000 0.000001 -12.238697 -1049.824118 -20.069478 -351.727176 0.000000 0.000002 -10.253697 405.372820 37.517795 -85.862199 -2.882597 -1.580095 6.695791 0.282340 -1.183536 0.323965 -4.235604 -0.000010 0.000006 -710.460978 -47.508655 -280.763122 0.000000 0.000010 -10.709907 149.679511 -182.475416 184.985866 -0.000008 -0.000008 -11.716805 -759.663584 12.385158 382.226484 2.279493 0.210399 -2.475494 344.139273 15.125507 -14.968208 0.000001 -0.000007 -20.742792 -389.554348 22.893297 19.714018 -0.000003 0.000001 -16.666004 410.208758 8.793699 26.160839 -1.961898 0.232296 -2.727392 -1236.767925 -21.148784 -104.435785 -0.000002 -0.000002 -20.526798 1079.990495 175.254676 -290.502070 -0.000010 0.000001 -16.867294 -36.525348 38.018971 -35.267491
-33.401295 51.039703 32.705891 958.103638 3.137225 -22.333349 -0.637403 0.831595 5.390095 -7.270394 -5.297360 1.485798 0.000004 -0.000000 4.429898 2.632326 -0.721350 -0.093360 -0.000006 0.000008 10.301400 319.390082 6.232052 22.592919 -0.000003 0.000003 2.173900 -361.066749 3.398735 -5.108092 2.142394 -0.572694 5.717800 2.964202 -9.727252 -22.890488 5.674004 0.000001 -0.000005 357.618268 -367.255556 -98.018399 -0.000003 -0.000013 -12.238697 -1049.788491 -19.717836 -351.882467 0.000003 -0.000003 -10.253705 405.315856 37.368795 -85.510717 -2.882604 -1.580091 6.695796 0.090621 -1.271070 0.493191 -4.235610 0.000006 -0.000000 -709.118928 -48.245656 -279.337853 0.000003 0.000015 -10.709903 149.754056 -182.559687 185.037638 -0.000007 -0.000005 -11.716788 -758.887565 12.422848 381.674058 2.279494 0.210403 -2.475497 343.762711 15.755786 -14.780956 -0.000003 -0.000002 -20.742802 -389.213740 22.540138 19.748109 -0.000000 -0.000004 -16.666002 410.453306 8.912002 26.568975 -1.961907 0.232300 -2.727398 -1236.606077 -21.136820 -104.513089 -0.000001 -0.000005 -20.526802 1079.976070 175.493214 -290.764158 -0.000001 0.000003 -16.867302 -36.971353 37.895799 -35.354463
-33.416496 51.101799 32.642788 957.930643 3.070432 -22.511853 -0.637405 0.831604 5.390093 -7.212145 -5.161578 1.634329 0.000002 -0.000008 4.429899 2.710302 -0.750325 -0.096918 0.000003 -0.000004 10.301395 319.530620 6.169934 22.692532 0.000004 -0.000003 2.173901 -361.092758 3.462754 -4.964251 2.142398 -0.572700 5.717801 3.003558 -9.831937 -22.680422 5.673998 -0.000009 -0.000005 357.608351 -366.953416 -97.708909 -0.000004 -0.000007 -12.238701 -1049.897228 -19.302282 -352.035163 0.000001 0.000010 -10.253698 405.200317 37.209877 -85.098590 -2.882596 -1.580099 6.695796 0.215125 -1.226648 0.763936 -4.235602 -0.000004 -0.000009 -708.026480 -48.724036 -278.017249 0.000006 0.000015 -10.709902 149.833382 -182.696195 185.138110 -0.000001 -0.000003 -11.716794 -758.301043 12.594959 380.937518 2.279499 0.210403 -2.475501 343.312738 16.168256 -14.509881 0.000000 -0.000004 -20.742794 -388.908594 22.301766 19.781995 0.000004 -0.000003 -16.666002 410.600947 8.930229 26.716596 -1.961898 0.232299 -2.727402 -1236.663779 -21.210608 -104.756927 0.000001 -0.000002 -20.526800 1079.986452 175.601199 -290.947535 -0.000010 -0.000001 -16.867298 -37.032476 37.807932 -35.858346
